IKResults
version=1
nRows=8
nColumns=40
inDegrees=yes

Units are S.I. units (second, meters, Newtons, ...)
Angles are in degrees.

endheader
time	pelvis_tilt	pelvis_list	pelvis_rotation	pelvis_tx	pelvis_ty	pelvis_tz	hip_flexion_r	hip_adduction_r	hip_rotation_r	knee_angle_r	knee_angle_r_beta	ankle_angle_r	subtalar_angle_r	mtp_angle_r	hip_flexion_l	hip_adduction_l	hip_rotation_l	knee_angle_l	knee_angle_l_beta	ankle_angle_l	subtalar_angle_l	mtp_angle_l	lumbar_extension	lumbar_bending	lumbar_rotation	arm_flex_r	arm_add_r	arm_rot_r	elbow_flex_r	pro_sup_r	wrist_flex_r	wrist_dev_r	arm_flex_l	arm_add_l	arm_rot_l	elbow_flex_l	pro_sup_l	wrist_flex_l	wrist_dev_l
      1.08000000	     16.40302630	      0.32904874	     -3.13976057	      0.62019773	      0.93039279	      1.00266316	    -27.65284323	      2.06626851	    -12.48877992	    -16.45051706	     -0.28711569	     14.49787973	     -2.29500387	      0.54024911	      5.77062188	      0.64152270	     20.33985470	    -17.50182742	     -0.30546451	      4.66189177	     -3.27709258	     -7.52035008	    -21.45181620	     -3.92203564	      2.56064666	     -8.51215229	    -16.03602219	     -6.19756777	     59.14773585	     89.95437384	      0.00000000	      0.00000000	     -9.51294689	      7.87938512	     17.90288179	     11.39138741	     89.95437384	      0.00000000	      0.00000000
      1.09000000	     16.21974210	      0.59132513	     -3.30337403	      0.63265150	      0.92832134	      1.00207416	    -27.96164609	      1.58216431	    -12.24054983	    -17.13702778	     -0.29909756	     14.56800887	     -2.54002753	      0.47950313	      6.12898386	      0.12014943	     21.76097574	    -15.47063429	     -0.27001351	      4.97005327	     -4.77736903	     -7.80425534	    -21.18246046	     -4.22227425	      2.58349609	     -8.39509223	    -16.04673746	     -6.34112278	     59.88737198	     89.95437384	      0.00000000	      0.00000000	    -10.04260973	      7.78624384	     17.84156853	     10.99150768	     89.95437384	      0.00000000	      0.00000000
      1.10000000	     16.25720524	      0.94049195	     -3.84293706	      0.64585131	      0.92654821	      1.00183614	    -28.39452129	      0.64346260	    -12.35473539	    -18.09399053	     -0.31579971	     14.70292442	     -1.50499133	     -0.35457654	      6.40404847	     -0.10440014	     25.33445907	    -14.47288909	     -0.25259957	      4.43149492	     -8.36143577	     -9.07951582	    -21.01421102	     -4.71778298	      2.99777174	     -8.47016817	    -16.06347983	     -6.58103466	     60.62456698	     89.95437384	      0.00000000	      0.00000000	    -10.70106164	      7.70486876	     17.30165624	     10.90800018	     89.95437384	      0.00000000	      0.00000000
      1.11000000	     15.96932790	      0.97041222	     -3.62572792	      0.65846352	      0.92456247	      1.00093797	    -28.60792707	      0.57641121	    -12.08054930	    -18.74931191	     -0.32723723	     14.47057860	     -1.57926964	     -0.36893580	      7.17474045	     -0.31794498	     25.92960058	    -13.98638820	     -0.24410852	      4.79878654	     -8.25108085	     -9.00104691	    -20.64694692	     -4.67914332	      2.72132417	     -8.37196940	    -16.00009742	     -6.65608646	     61.04691225	     89.95437384	      0.00000000	      0.00000000	    -11.24926024	      7.61807712	     17.21165015	     10.79735895	     89.95437384	      0.00000000	      0.00000000
      1.12000000	     16.05703602	      1.53464515	     -4.61842011	      0.67203046	      0.92329171	      1.00104828	    -28.80517239	     -0.73345170	    -11.19425554	    -20.15459274	     -0.35176400	     14.24134888	     -1.94882954	     -0.60597082	      6.90162850	     -1.15282343	     27.74084917	    -12.95182970	     -0.22605207	      5.02066224	     -8.38139655	     -9.07271136	    -20.40262374	     -5.52838711	      3.60804736	     -8.57274991	    -15.94420304	     -7.01455177	     61.44512518	     89.95437384	      0.00000000	      0.00000000	    -11.82049665	      7.56226595	     16.45300721	     10.83628377	     89.95437384	      0.00000000	      0.00000000
      1.13000000	     15.83754072	      1.55783297	     -4.49291138	      0.68533541	      0.92171378	      1.00051202	    -28.93063145	     -0.83066515	    -10.65960285	    -21.15889047	     -0.36929230	     13.70470120	     -1.89982755	     -0.61200612	      7.36474728	     -1.29590466	     27.74215716	    -13.17527470	     -0.22995192	      5.23316651	     -7.98795561	     -8.91344999	    -20.01967528	     -5.54349087	      3.39308998	     -8.57448557	    -15.76386873	     -7.04994643	     61.62324880	     89.95437384	      0.00000000	      0.00000000	    -12.41997338	      7.51179539	     16.32452866	     10.94398247	     89.95437384	      0.00000000	      0.00000000
      1.14000000	     15.87877077	      1.67508993	     -5.33528121	      0.69916228	      0.92066436	      1.00104398	    -28.98607280	     -1.49040254	     -9.30792792	    -22.70138459	     -0.39621391	     12.84243660	     -3.06349506	     -0.73276081	      7.19282048	     -1.55900272	     28.00087647	    -13.40351790	     -0.23393552	      6.17768017	     -6.25572094	     -8.75132606	    -19.70891031	     -5.91500276	      4.28957312	     -8.80649668	    -15.64443733	     -7.35266392	     61.69990951	     89.95437384	      0.00000000	      0.00000000	    -12.97041197	      7.47030642	     15.23335182	     11.14404379	     89.95437384	      0.00000000	      0.00000000
      1.15000000	     15.90297743	      1.52230063	     -5.56988704	      0.71316872	      0.91969491	      1.00107737	    -29.03028751	     -1.65257168	     -8.64734696	    -24.30353989	     -0.42417679	     11.84344232	     -3.23560207	     -0.68066658	      7.16760644	     -1.42741986	     27.66055742	    -14.36920613	     -0.25078996	      6.48427603	     -5.25072711	     -8.48330168	    -19.45404857	     -5.86222412	      4.49222965	     -8.90061964	    -15.48513075	     -7.35007848	     61.54717509	     89.95437384	      0.00000000	      0.00000000	    -13.53142473	      7.40455123	     15.00805140	     11.35167196	     89.95437384	      0.00000000	      0.00000000
